<svg id="visual" opacity="0.4" viewBox="0 0 1920 1080" width="1920" height="1080" xmlns="http://www.w3.org/2000/svg" xmlns:xlink="http://www.w3.org/1999/xlink" version="1.1"><rect width="1920" height="1080" fill="#4499d1"></rect><g><g transform="translate(1436 46)"><path d="M148.9 -183.8C193.2 -140.2 229.6 -93.6 258.1 -30.9C286.5 31.8 307.1 110.5 279.7 164.8C252.3 219 176.8 248.8 95.6 290.5C14.3 332.1 -72.7 385.6 -151.5 374.9C-230.2 364.1 -300.7 289.2 -346.8 203.2C-392.9 117.2 -414.7 20.1 -383.9 -52.6C-353.1 -125.3 -269.6 -173.6 -196.9 -212.1C-124.1 -250.6 -62.1 -279.4 -4.9 -273.6C52.3 -267.8 104.6 -227.3 148.9 -183.8Z" fill="#2184C5"></path></g><g transform="translate(239 84)"><path d="M160 -220.3C199.3 -157.7 217.6 -99.7 247.5 -29C277.4 41.7 319 124.9 293.5 169.9C268.1 215 175.6 221.7 93.1 248.6C10.6 275.5 -61.9 322.4 -129.2 315.2C-196.4 307.9 -258.4 246.5 -299.8 173.6C-341.2 100.8 -362 16.7 -355.8 -70.4C-349.5 -157.4 -316.3 -247.4 -252.5 -305.7C-188.7 -364 -94.4 -390.6 -17 -370.3C60.4 -350.1 120.7 -282.9 160 -220.3Z" fill="#2184C5"></path></g><g transform="translate(952 1040)"><path d="M150.4 -201.7C184 -151 193 -93.3 216.6 -28C240.3 37.3 278.6 110.1 259.8 156.9C241.1 203.7 165.1 224.4 96.3 237.9C27.5 251.3 -34.2 257.4 -103.5 248C-172.8 238.5 -249.7 213.5 -280 161.5C-310.3 109.4 -294 30.2 -280.7 -50.3C-267.5 -130.8 -257.2 -212.6 -210.9 -261.1C-164.7 -309.6 -82.3 -324.8 -12 -310.5C58.4 -296.2 116.7 -252.4 150.4 -201.7Z" fill="#2184C5"></path></g></g></svg>