<svg width="100" height="51" viewBox="0 0 100 51" fill="none" xmlns="http://www.w3.org/2000/svg">
<path fill-rule="evenodd" clip-rule="evenodd" d="M1.46472 3.0491C0.0229156 4.80043 -0.140995 5.44313 0.0811948 8.47739C0.232356 10.5389 1.37305 14.6247 2.92473 18.6646L5.51512 25.4099L5.09138 34.174C4.64701 43.3779 5.1187 46.0908 7.66295 48.9637C9.08897 50.5736 9.97105 50.323 8.87832 48.6188C6.61939 45.0963 6.50101 39.8566 8.43576 29.0571C9.20432 24.7678 8.92567 21.9799 7.16576 16.3363C4.85645 8.93213 6.25029 4.1968 10.4895 5.04485C11.5416 5.25516 13.7683 5.59823 15.4378 5.80667L18.4731 6.18572L13.6615 3.62419C7.32299 0.249969 3.90273 0.0886716 1.46472 3.0491ZM21.8121 7.01579C18.0118 9.08412 16.1317 9.76529 14.6789 9.60027C12.6155 9.36639 12.0163 9.96505 13.6663 10.6121C15.5768 11.3615 18.5448 10.9527 22.1156 9.44952C26.1891 7.7348 28.9403 7.48913 30.5558 8.69638C31.8664 9.67596 31.9417 11.0817 31.0202 17.3922C29.8807 25.1928 30.2747 25.4347 32.2088 18.123C34.9401 7.80242 34.9862 7.07782 33.0162 5.49463C30.4526 3.43374 27.7104 3.80596 21.8121 7.01579ZM67.1569 14.487C66.6719 14.9827 67.22 15.9517 67.9856 15.9517C68.3 15.9517 68.5568 15.5329 68.5568 15.0211C68.5568 14.062 67.8405 13.7884 67.1569 14.487ZM35.4536 15.4653C35.2648 15.9672 35.192 18.4456 35.2909 20.973L35.4712 25.5675L37.3265 25.753C41.6962 26.1897 44.7291 22.8397 43.6018 18.8222C42.8411 16.1111 41.7271 15.2351 38.5801 14.8728C36.4778 14.6303 35.7122 14.7754 35.4536 15.4653ZM70.6342 15.5447C70.029 17.1552 70.6622 25.4614 71.4089 25.7139C71.9055 25.8814 72.1944 24.8137 72.3195 22.3515L72.5028 18.7434L74.5201 22.3105C77.4778 27.5397 78.27 27.1135 78.27 20.2943C78.27 16.9858 78.0229 14.7109 77.663 14.7109C77.3291 14.7109 77.0486 16.3158 77.0395 18.2781L77.0231 21.8452L74.8662 18.2781C72.7687 14.8102 71.2729 13.8436 70.6342 15.5447ZM62.4861 16.2619C62.4861 16.7737 62.2129 17.1924 61.879 17.1924C61.5451 17.1924 61.2719 17.6112 61.2719 18.123C61.2719 18.6348 61.5305 19.0536 61.8474 19.0536C62.1637 19.0536 62.5049 20.5189 62.6063 22.3105C62.7659 25.1481 62.9657 25.5929 64.1555 25.766C65.6823 25.9875 66.0259 24.9676 64.6108 24.4124C64.0098 24.1766 63.7002 23.2051 63.7002 21.5543C63.7002 19.7453 63.9522 19.0536 64.6108 19.0536C65.1117 19.0536 65.5215 18.6348 65.5215 18.123C65.5215 17.6112 65.1117 17.1924 64.6108 17.1924C64.11 17.1924 63.7002 16.7737 63.7002 16.2619C63.7002 15.7501 63.427 15.3313 63.0932 15.3313C62.7593 15.3313 62.4861 15.7501 62.4861 16.2619ZM95.8752 16.2619C95.8752 16.7737 95.602 17.1924 95.2681 17.1924C94.9342 17.1924 94.6611 17.6112 94.6611 18.123C94.6611 18.6348 94.9342 19.0536 95.2681 19.0536C95.602 19.0536 95.8752 20.2757 95.8752 21.7696C95.8752 24.792 97.0299 26.3057 98.7509 25.5408C99.7672 25.0892 99.7672 25.052 98.7588 24.8057C97.9502 24.6078 97.6964 23.9061 97.6964 21.8663C97.6964 19.888 97.9745 19.0759 98.7588 18.7657C99.7708 18.3643 99.7708 18.3066 98.7588 17.5448C98.1742 17.105 97.6964 16.4275 97.6964 16.0385C97.6964 15.6496 97.2867 15.3313 96.7858 15.3313C96.285 15.3313 95.8752 15.7501 95.8752 16.2619ZM41.2385 18.7434C42.0993 21.0574 41.0387 23.3962 39.1289 23.3962C37.6944 23.3962 37.596 23.1977 37.596 20.2943C37.596 17.391 37.6944 17.1924 39.1289 17.1924C40.2052 17.1924 40.8335 17.654 41.2385 18.7434ZM46.0951 18.4332C44.6423 19.9177 44.5239 22.599 45.8261 24.4986C46.7519 25.8498 48.6782 26.2543 50.5983 25.5011C52.2083 24.8702 51.6905 23.8484 49.9828 24.2864C48.4523 24.6791 46.7021 23.8329 46.7021 22.7001C46.7021 22.4005 47.7949 22.1554 49.1304 22.1554C51.4173 22.1554 51.5587 22.0481 51.5587 20.316C51.5587 17.2973 48.3042 16.1756 46.0951 18.4332ZM53.6361 17.7613C53.4953 17.9034 53.38 19.811 53.38 22.0003C53.38 26.8473 54.7301 27.1569 55.2012 22.4172C55.4549 19.8619 55.722 19.3321 56.8379 19.1702C58.0478 18.994 58.1874 19.2788 58.3555 22.2721C58.5917 26.4832 59.6978 26.562 59.9352 22.385C60.1579 18.4648 59.1217 17.131 56.0244 17.3512C54.8515 17.4344 53.777 17.6192 53.6361 17.7613ZM67.3427 21.4985C67.3427 24.0042 67.6025 25.8777 67.9498 25.8777C68.2915 25.8777 68.5568 24.132 68.5568 21.8818C68.5568 19.6839 68.2836 17.7135 67.9498 17.5026C67.5667 17.2607 67.3427 18.7372 67.3427 21.4985ZM81.3054 18.4332C79.7549 20.0176 79.6997 23.4619 81.2016 24.851C82.6294 26.1717 85.1719 26.168 86.2397 24.8441C86.9919 23.9105 86.9057 23.8534 85.3449 24.2504C84.2989 24.5172 83.2814 24.4055 82.7648 23.9676C81.3109 22.7342 81.8141 22.1554 84.3408 22.1554C86.5074 22.1554 86.7691 21.9929 86.7691 20.6485C86.7691 17.4735 83.5303 16.1595 81.3054 18.4332ZM89.2678 18.793C87.6433 20.9035 87.6311 23.0364 89.2344 24.6748C90.6003 26.0706 93.4773 26.1258 93.915 24.7647C94.0983 24.194 93.748 24.0712 92.7026 24.3398C90.8341 24.8187 89.6497 23.4471 89.9125 21.107C90.0776 19.6367 90.4225 19.3327 92.118 19.1665C94.4644 18.9363 94.4547 17.6 92.1047 17.3134C91.0059 17.1794 90.1772 17.6112 89.2678 18.793ZM50.1958 20.1392C50.3598 20.6473 49.8 20.9147 48.5737 20.9147C46.7701 20.9147 46.2304 20.3626 47.1325 19.4407C47.7845 18.7744 49.9123 19.2595 50.1958 20.1392ZM85.4062 20.1392C85.5701 20.6473 85.0104 20.9147 83.7841 20.9147C81.9805 20.9147 81.4408 20.3626 82.3429 19.4407C82.9949 18.7744 85.1227 19.2595 85.4062 20.1392ZM18.0385 22.0593C17.239 23.0302 16.1438 25.0538 15.6047 26.557C14.4355 29.8158 11.9283 40.7996 12.2731 41.152C12.4066 41.2878 13.1266 39.2486 13.8739 36.6201C15.3807 31.3209 17.5601 26.5465 19.0474 25.2852C20.1553 24.3454 20.1062 24.3143 21.412 26.8083L22.3863 28.6694L21.9984 26.4981C21.5953 24.2418 20.1541 20.2943 19.7328 20.2943C19.6005 20.2943 18.838 21.0884 18.0385 22.0593ZM95.5844 31.1453C88.5205 34.5778 83.5856 35.4991 72.5028 35.4544C67.1606 35.4333 57.7406 34.9445 51.569 34.3688C36.9859 33.0083 33.5292 33.025 31.2217 34.4655L29.4005 35.6027L28.17 33.3824C26.5691 30.4933 25.1801 30.2451 23.972 32.6323C22.498 35.545 22.716 36.4563 24.7861 36.0332C26.2121 35.7417 26.6231 35.9216 26.9522 36.9793C27.4141 38.4682 26.8587 40.7667 26.0361 40.7667C25.7332 40.7667 25.0617 39.9292 24.5439 38.9056C23.3917 36.6282 22.8392 36.4619 23.6485 38.6357C23.9738 39.5111 24.2404 41.152 24.2404 42.2823C24.2404 44.9418 25.5486 46.1652 26.9078 44.7762C27.4439 44.2284 27.8828 43.3977 27.8828 42.9306C27.8828 41.0999 29.0241 41.5236 30.5849 43.9337C33.0199 47.6938 36.5142 49.1064 43.3632 49.099C51.889 49.0897 59.1387 46.4146 65.1147 41.0719L68.2327 38.2852H74.701C79.8411 38.2852 82.2719 37.9589 86.536 36.6958C92.4464 34.9457 96.9115 32.7055 98.9853 30.4492C100.635 28.6545 100.763 28.6284 95.5844 31.1453ZM51.7633 37.0997C57.3848 37.7517 62.9851 38.2939 64.2084 38.3044L66.4321 38.3237L64.0038 39.8802C56.6806 44.5727 50.1649 46.5685 42.1491 46.5747C34.951 46.5803 32.5336 45.6224 31.1398 42.2128C29.7356 38.7784 30.2279 36.8676 32.7394 36.001C35.0178 35.2143 35.9915 35.2702 51.7633 37.0997Z" fill="#71569C"/>
</svg>
